<svg width="274" height="101" viewBox="0 0 274 101" fill="none" xmlns="http://www.w3.org/2000/svg">
<g clip-path="url(#clip0_37_572)">
<path d="M233.1 90.5404C228.477 92.4486 223.432 93.5211 218.111 93.5211C203.679 93.5211 201.441 85.6473 201.441 82.7872C201.441 79.5653 204.244 75.3915 212.928 75.3915C220.776 75.3915 227.917 78.8503 236.045 82.7872C252.154 70.382 261.261 43.1854 261.261 26.7228C261.261 13.8395 255.656 4.89314 242.069 4.89314C215.028 4.89314 196.677 40.558 196.677 67.1601C196.677 70.382 196.957 74.5558 198.358 79.0872C187.57 79.0872 184.629 70.8558 184.629 61.9095C184.629 32.3266 209.147 0 242.069 0C261.261 0 273.309 11.0957 273.309 29.5828C273.309 49.0262 260.14 73.2421 242.207 85.6473C248.373 88.2704 255.095 90.2992 262.24 90.2992C267.143 90.2992 268.264 89.3473 272.188 88.5116C268.686 98.6511 261.679 100.081 256.777 100.081C247.812 100.081 240.245 95.4292 233.1 90.5361V90.5404ZM228.059 87.0816C222.596 83.2653 217.133 79.9228 211.389 79.9228C207.608 79.9228 205.646 81.3528 205.646 83.6185C205.646 86.1254 208.026 89.9417 215.593 89.9417C220.638 89.9417 225.118 88.2704 228.063 87.0773L228.059 87.0816Z" fill="white"/>
<path d="M34.0686 10.7209L10.9048 65.3251C9.68022 68.2713 8.93425 70.6921 8.66691 72.5916C8.39957 74.4911 8.36076 75.8953 8.55049 76.8128C8.74022 77.7303 8.79627 78.2515 8.72297 78.385C8.64535 78.7769 8.2659 78.9751 7.57599 78.9751C3.75129 78.9751 1.36247 77.222 0.409527 73.7201C-0.543414 70.2183 0.163746 65.7171 2.53101 60.2166L25.8112 5.22042C26.0398 4.76385 26.5011 4.53125 27.1867 4.53125C28.1052 4.53125 29.153 4.9103 30.3388 5.65977C31.5246 6.41356 32.5163 7.26641 33.3183 8.21403C34.1204 9.16165 34.3661 9.99727 34.0643 10.7166L34.0686 10.7209Z" fill="white"/>
<path d="M59.5224 71.5108C55.9262 74.0651 52.4896 76.0292 49.2039 77.4033C45.9139 78.7773 42.5893 79.4665 39.226 79.4665C35.1728 79.4665 31.9043 78.8419 29.4207 77.6014C26.937 76.3566 25.1001 74.7026 23.9143 72.6437C22.7285 70.5805 22.0213 68.3062 21.7928 65.8165C21.5643 63.3269 21.7152 60.8243 22.2499 58.3045C22.7846 55.7847 23.5478 53.4415 24.5438 51.2836C26.6093 46.7005 29.4163 42.7249 32.9737 39.3522C36.5267 35.9796 40.3514 33.3478 44.4392 31.4482C48.5269 29.5487 52.33 28.6011 55.8486 28.6011C57.9873 28.6011 60.1649 28.9457 62.3855 29.6305C64.6019 30.3197 66.5336 31.3362 68.1765 32.6758C69.8193 34.0197 70.9275 35.6867 71.501 37.6853C72.0745 39.6839 71.7468 42.0228 70.5265 44.7062C68.6163 49.0911 64.908 53.0711 59.4016 56.6376C53.8953 60.2084 46.0605 62.7411 35.8929 64.2487C35.203 64.3822 34.3449 64.184 33.3143 63.6586C32.2838 63.1331 31.3826 62.5128 30.6194 61.7935C29.6233 64.5416 29.1274 66.6737 29.1274 68.177C29.1274 69.6802 29.4163 70.7484 29.9855 71.3687C30.559 71.9933 31.2058 72.3508 31.9345 72.4498C32.6589 72.5489 33.254 72.5963 33.711 72.5963C36.1559 72.5963 38.9846 71.9588 42.197 70.6795C45.4094 69.4045 48.6951 67.5869 52.0584 65.2307C52.6707 64.7742 53.4943 64.7569 54.5248 65.1834C55.5554 65.6098 56.5687 66.2473 57.5648 67.1001C58.5565 67.953 59.2852 68.8015 59.7423 69.6544C60.1994 70.5072 60.1261 71.1275 59.5138 71.5195L59.5224 71.5108ZM32.577 56.7797L32.4606 57.0726C38.7302 55.9613 44.2883 54.3418 49.1435 52.2096C53.9988 50.0818 57.9356 47.8549 60.9539 45.5332C63.9723 43.2116 65.9041 41.1613 66.7449 39.3953C66.8958 39.1368 66.9562 38.6932 66.9174 38.0686C66.8786 37.4484 66.4776 36.8583 65.7143 36.2983C64.9511 35.7426 63.4937 35.4627 61.355 35.4627C58.7548 35.4627 56.0254 36.0528 53.1579 37.2287C50.2905 38.4089 47.5395 39.994 44.9006 41.9926C42.2616 43.9912 39.8728 46.2655 37.7341 48.8197C35.5911 51.374 33.8749 54.023 32.5727 56.7754L32.577 56.7797Z" fill="white"/>
<path d="M93.2373 35.2727L86.7004 50.4949C90.1414 45.9765 93.8496 41.8544 97.8253 38.1199C101.801 34.3897 105.889 31.5426 110.093 29.5784C110.783 29.2511 111.623 29.3028 112.615 29.7249C113.607 30.1513 114.547 30.7414 115.427 31.4909C116.306 32.2447 116.897 33.0114 117.203 33.7996C117.509 34.5836 117.276 35.1435 116.513 35.4709C112.615 37.3058 108.696 39.6275 104.759 42.4445C100.822 45.2615 97.0577 48.3843 93.4616 51.8216C89.8654 55.2588 86.6185 58.8942 83.7165 62.7234C80.8103 66.5527 78.443 70.3991 76.6061 74.2628L74.8857 78.2902C74.5795 79.0095 73.95 79.255 72.9927 79.0268C72.0355 78.7985 71.0222 78.3074 69.9528 77.5536C68.8834 76.7999 68.0038 75.9815 67.3139 75.0985C66.6283 74.2155 66.3954 73.4444 66.6283 72.7897L84.9756 29.7766C85.2818 29.0572 85.9113 28.8117 86.8686 29.04C87.8215 29.2683 88.8348 29.7593 89.9085 30.5131C90.9779 31.2669 91.8575 32.0853 92.5474 32.9683C93.233 33.8513 93.4659 34.6223 93.233 35.2771L93.2373 35.2727Z" fill="white"/>
<path d="M107.229 72.6905L125.46 29.6774C125.689 29.1519 126.15 28.8934 126.836 28.8934C127.754 28.8934 128.785 29.2725 129.932 30.022C131.079 30.7757 132.071 31.6415 132.911 32.6236C133.752 33.6057 134.02 34.4585 133.713 35.1778L130.962 41.6604C134.783 37.2109 138.625 33.9029 142.488 31.7406C146.347 29.5783 149.771 28.5015 152.751 28.5015C157.873 28.5015 161.181 30.2201 162.668 33.6574C164.156 37.0946 163.681 41.7595 161.237 47.6519L148.163 78.1953C148.008 78.7208 147.55 78.9792 146.787 78.9792C145.946 78.9792 144.933 78.6002 143.747 77.8507C142.562 77.0969 141.57 76.2139 140.768 75.1974C139.966 74.1852 139.716 73.3495 140.022 72.6948L150.685 47.6519C151.906 44.7703 152.061 42.5305 151.142 40.9238C150.224 39.3215 148.693 38.516 146.554 38.516C144.416 38.516 141.872 39.3861 138.927 41.1177C135.982 42.8535 132.98 45.5844 129.923 49.3189C126.866 53.049 124.037 57.9594 121.437 64.05L115.362 78.191C115.207 78.7165 114.749 78.9749 113.986 78.9749C113.145 78.9749 112.132 78.5959 110.946 77.8464C109.761 77.0926 108.769 76.2096 107.967 75.1931C107.165 74.1809 106.919 73.3452 107.221 72.6905H107.229Z" fill="white"/>
<path d="M159.197 73.2805L175.277 29.6041C175.544 28.8718 176.161 28.6048 177.126 28.7943C178.092 28.9881 179.132 29.4404 180.24 30.1468C181.348 30.8575 182.271 31.6414 183.004 32.4986C183.737 33.3558 183.965 34.1182 183.698 34.7815L167.731 78.4537C167.463 79.1859 166.847 79.453 165.881 79.2634C164.915 79.0696 163.859 78.6173 162.712 77.9109C161.565 77.2002 160.646 76.4163 159.948 75.5591C159.253 74.702 159.003 73.9396 159.197 73.2762V73.2805Z" fill="white"/>
<path d="M187.591 25.7668C184.043 26.5723 179.899 23.1393 178.817 19.6288C178.114 17.3502 178.554 15.3215 181.658 14.6151C184.763 13.9087 189.394 16.6223 190.45 20.038C191.183 22.4114 190.588 25.0862 187.591 25.7668Z" fill="white"/>
</g>
<defs>
<clipPath id="clip0_37_572">
<rect width="273.309" height="100.081" fill="white"/>
</clipPath>
</defs>
</svg>
